<svg height="512pt" viewBox="-50 0 511 512" width="512pt" xmlns="http://www.w3.org/2000/svg">

    <path d="m130.71875 293.363281c-4.402344-7.628906-14.152344-10.238281-21.777344-5.835937l-12.4375 7.179687v-15.390625c0-8.804687-7.136719-15.941406-15.941406-15.941406-8.804688 0-15.945313 7.136719-15.945313 15.941406v15.390625l-12.433594-7.179687c-7.628906-4.40625-17.378906-1.792969-21.78125 5.835937-4.402343 7.625-1.789062 17.375 5.835938 21.777344l12.4375 7.179687-12.4375 7.179688c-7.625 4.402344-10.238281 14.15625-5.835938 21.78125 2.953126 5.113281 8.3125 7.972656 13.824219 7.972656 2.703125 0 5.445313-.6875 7.957031-2.140625l12.433594-7.179687v15.390625c0 8.804687 7.140625 15.945312 15.945313 15.945312 8.804687 0 15.941406-7.140625 15.941406-15.945312v-15.386719l12.4375 7.175781c2.507813 1.453125 5.25 2.140625 7.957031 2.140625 5.507813 0 10.867188-2.859375 13.820313-7.972656 4.402343-7.625 1.789062-17.378906-5.835938-21.78125l-12.4375-7.179688 12.4375-7.179687c7.625-4.402344 10.238281-14.152344 5.835938-21.777344zm0 0"
          fill="#7ed8f6"/>
    <path d="m382.179688 293.363281c-4.402344-7.628906-14.152344-10.238281-21.777344-5.835937l-12.4375 7.179687v-15.390625c0-8.804687-7.136719-15.941406-15.941406-15.941406-8.804688 0-15.945313 7.136719-15.945313 15.941406v15.390625l-12.433594-7.179687c-7.628906-4.40625-17.378906-1.792969-21.78125 5.835937-4.402343 7.625-1.789062 17.375 5.835938 21.777344l12.4375 7.179687-12.4375 7.179688c-7.625 4.402344-10.238281 14.15625-5.835938 21.78125 2.953126 5.113281 8.3125 7.972656 13.824219 7.972656 2.703125 0 5.445313-.6875 7.957031-2.140625l12.433594-7.179687v15.390625c0 8.804687 7.140625 15.945312 15.945313 15.945312 8.804687 0 15.941406-7.140625 15.941406-15.945312v-15.386719l12.4375 7.175781c2.507813 1.453125 5.25 2.140625 7.957031 2.140625 5.507813 0 10.867188-2.859375 13.820313-7.972656 4.402343-7.625 1.789062-17.378906-5.835938-21.78125l-12.4375-7.179688 12.4375-7.179687c7.625-4.402344 10.238281-14.152344 5.835938-21.777344zm0 0"
          fill="#7ed8f6"/>
    <path d="m256.449219 293.363281c-4.402344-7.628906-14.152344-10.238281-21.777344-5.835937l-12.4375 7.179687v-15.390625c0-8.804687-7.136719-15.941406-15.941406-15.941406-8.804688 0-15.945313 7.136719-15.945313 15.941406v15.390625l-12.433594-7.179687c-7.628906-4.40625-17.378906-1.792969-21.78125 5.835937-4.402343 7.625-1.789062 17.375 5.835938 21.777344l12.4375 7.179687-12.4375 7.179688c-7.625 4.402344-10.238281 14.15625-5.835938 21.78125 2.953126 5.113281 8.3125 7.972656 13.824219 7.972656 2.703125 0 5.445313-.6875 7.957031-2.140625l12.433594-7.179687v15.390625c0 8.804687 7.140625 15.945312 15.945313 15.945312 8.804687 0 15.941406-7.140625 15.941406-15.945312v-15.386719l12.4375 7.175781c2.507813 1.453125 5.25 2.140625 7.957031 2.140625 5.507813 0 10.867188-2.859375 13.820313-7.972656 4.402343-7.625 1.789062-17.378906-5.835938-21.78125l-12.4375-7.179688 12.4375-7.179687c7.625-4.402344 10.238281-14.152344 5.835938-21.777344zm0 0"
          fill="#7ed8f6"/>
    <path d="m412.082031 159.394531c0 38.789063-31.4375 70.226563-70.222656 70.226563h-271.125c-38.785156 0-70.234375-31.4375-70.234375-70.226563 0-38.785156 31.449219-70.234375 70.234375-70.234375 11.164063 0 21.703125 2.609375 31.078125 7.238282 8.789062-54.46875 55.859375-96.109376 112.734375-96.39453175h.597656c55.113281 0 101.148438 38.84765575 112.25 90.64843775 4.667969-.96875 9.511719-1.492188 14.464844-1.492188 38.785156 0 70.222656 31.449219 70.222656 70.234375zm0 0"
          fill="#dae2f2"/>
    <path d="m256.449219 351.277344c-2.957031 5.113281-8.3125 7.972656-13.816407 7.972656-2.710937 0-5.453124-.679688-7.960937-2.136719l-12.4375-7.175781v15.394531c0 8.800781-7.144531 15.941407-15.945313 15.941407v-117.898438c8.800782 0 15.945313 7.132812 15.945313 15.945312v15.390626l12.4375-7.183594c7.621094-4.402344 17.375-1.789063 21.777344 5.832031 4.398437 7.632813 1.785156 17.378906-5.835938 21.78125l-12.4375 7.183594 12.4375 7.175781c7.621094 4.398438 10.234375 14.15625 5.835938 21.777344zm0 0"
          fill="#5ecef4"/>
    <path d="m382.179688 351.277344c-2.957031 5.113281-8.3125 7.972656-13.816407 7.972656-2.710937 0-5.453124-.679688-7.960937-2.136719l-12.4375-7.175781v15.394531c0 8.800781-7.144531 15.941407-15.945313 15.941407v-117.898438c8.800782 0 15.945313 7.132812 15.945313 15.945312v15.390626l12.4375-7.183594c7.621094-4.402344 17.375-1.789063 21.777344 5.832031 4.398437 7.632813 1.785156 17.378906-5.835938 21.78125l-12.4375 7.183594 12.4375 7.175781c7.621094 4.398438 10.234375 14.15625 5.835938 21.777344zm0 0"
          fill="#5ecef4"/>
    <path d="m130.71875 351.277344c-2.957031 5.113281-8.3125 7.972656-13.816407 7.972656-2.710937 0-5.453124-.679688-7.960937-2.136719l-12.4375-7.175781v15.394531c0 8.800781-7.144531 15.941407-15.945313 15.941407v-117.898438c8.800782 0 15.945313 7.132812 15.945313 15.945312v15.390626l12.4375-7.183594c7.621094-4.402344 17.375-1.789063 21.777344 5.832031 4.398437 7.632813 1.785156 17.378906-5.835938 21.78125l-12.4375 7.183594 12.4375 7.175781c7.621094 4.398438 10.234375 14.15625 5.835938 21.777344zm0 0"
          fill="#5ecef4"/>

          
    <path d="m412.078125 159.394531c0 38.785157-31.429687 70.222657-70.226563 70.222657h-135.5625v-229.277344c2.734376-.210938 5.484376-.3281252 8.261719-.339844h.59375c55.113281 0 101.144531 38.847656 112.253907 90.65625 4.664062-.980469 9.5-1.5 14.453124-1.5 38.796876 0 70.226563 31.453125 70.226563 70.238281zm0 0"
          fill="#b9ceed"/>
</svg>